<?xml version="1.0" encoding="iso-8859-1"?>
<!-- Uploaded to: SVG Repo, www.svgrepo.com, Generator: SVG Repo Mixer Tools -->
<svg fill="#000000" height="800px" width="800px" version="1.1" id="Layer_1" xmlns="http://www.w3.org/2000/svg" xmlns:xlink="http://www.w3.org/1999/xlink" 
	 viewBox="0 0 512 512" xml:space="preserve">
<g>
	<g>
		<path d="M461.913,172.515h-128V55.645c0-27.618-22.469-50.087-50.087-50.087H50.087C22.469,5.558,0,28.027,0,55.645v166.957
			c0,27.618,22.469,50.087,50.087,50.087h16.696v50.087c0,14.935,18.077,22.233,28.501,11.805l61.893-61.892h20.911v116.87
			c0,27.618,22.469,50.087,50.087,50.087h126.65l61.893,61.892c10.48,10.482,28.501,3.053,28.501-11.805v-50.087h16.696
			c27.618,0,50.087-22.469,50.087-50.087V222.602C512,194.983,489.531,172.515,461.913,172.515z M150.261,239.298
			c-4.428,0-8.674,1.759-11.805,4.891l-38.282,38.281v-26.476c0-9.22-7.475-16.696-16.696-16.696H50.087
			c-9.206,0-16.696-7.49-16.696-16.696V55.645c0-9.206,7.49-16.696,16.696-16.696h233.739c9.206,0,16.696,7.49,16.696,16.696
			v166.957c0,9.206-7.49,16.696-16.696,16.696H150.261z M478.609,389.558c0,9.206-7.49,16.696-16.696,16.696h-33.391
			c-9.22,0-16.696,7.475-16.696,16.696v26.476l-38.282-38.282c-3.131-3.131-7.377-4.891-11.805-4.891H228.174
			c-9.206,0-16.696-7.49-16.696-16.696v-116.87h72.348c27.618,0,50.087-22.469,50.087-50.087v-16.696h128
			c9.206,0,16.696,7.49,16.696,16.696V389.558z"/>
	</g>
</g>
<g>
	<g>
		<circle cx="277.582" cy="306.076" r="16.696"/>
	</g>
</g>
<g>
	<g>
		<circle cx="344.365" cy="306.076" r="16.696"/>
	</g>
</g>
<g>
	<g>
		<circle cx="411.147" cy="306.076" r="16.696"/>
	</g>
</g>
<g>
	<g>
		<circle cx="233.06" cy="139.119" r="16.696"/>
	</g>
</g>
<g>
	<g>
		<circle cx="166.278" cy="139.119" r="16.696"/>
	</g>
</g>
<g>
	<g>
		<circle cx="99.495" cy="139.119" r="16.696"/>
	</g>
</g>
</svg>